# xmcd
#
# Track frame offsets:
#	150
#	17497
#	34392
#	53302
#	71692
#	89969
#	110965
#	128231
#	146505
#	172767
#	196650
#	218329
#	232616
#
# Disc length: 3310 seconds
#
# Revision: 9
# Processed by: cddbd v1.5.2PL0 Copyright (c) Steve Scherf et al.
# Submitted via: Jack! The Knife 20 Magnifico
#
DISCID=a80cec0d
DTITLE=Adele - 21
DYEAR=2011
DGENRE=Soul
TTITLE0=Rolling In The Deep
TTITLE1=Rumous Has It
TTITLE2=Turning Tables
TTITLE3=Don't You Remember
TTITLE4=Set Fire To The Rain
TTITLE5=He Won't Go
TTITLE6=Take It All
TTITLE7=I'll Be Waiting
TTITLE8=One And Only
TTITLE9=Lovesong
TTITLE10=Someone Like You
TTITLE11=If It Hadn't Been For Love
TTITLE12=Hiding My Heart
EXTD=Rubin, Epworth, Abbiss, Smith, Tedder, Wilson
EXTT0=Adkins, Epworth
EXTT1=Adkins, Tedder
EXTT2=Adkins, Tedder
EXTT3=Adkins, Wilson
EXTT4=Adkins, Smith
EXTT5=Adkins, Epworth
EXTT6=Adkins, White
EXTT7=Adkins, Epworth
EXTT8=Adkins, Wilson, Wells
EXTT9=Smith, Gallup, O'Donnell, Thompson, Tolhurst, Williams
EXTT10=Adkins, Wilson
EXTT11=Henderson, Stapleton
EXTT12=Tim Hanseroth
PLAYORDER=
